STARTFONT 2.1
COMMENT Copyright (C) 1990-1991 EWT Consulting
COMMENT Portions Copyright (C) 1994-1995 Cronyx Ltd.
COMMENT Modified by Serge Vakulenko, <vak@cronyx.ru>
COMMENT Encoding changed to CP1251 by Rabinovich Moisei, <moisei@cs.bgu.ac.il>,$
COMMENT This software may be used, modified, copied, distributed, and sold,
COMMENT in both source and binary form provided that the copyright
COMMENT and these terms are retained. Under no circumstances is the author
COMMENT responsible for the proper functioning of this software, nor does
COMMENT the author assume any responsibility for damages incurred with its use.
FONT -Cronyx-Helvetica-Bold-R-Normal--18-180-75-75-P-98-RAWIN-R
SIZE 18 96 96
FONTBOUNDINGBOX 25 29 0 -6
STARTPROPERTIES 19
DEFAULT_CHAR 32
FONT_ASCENT 23
FONT_DESCENT 6
SPACING "P"
FONTNAME_REGISTRY ""
FOUNDRY "Cronyx"
FAMILY_NAME "Helvetica"
WEIGHT_NAME "Bold"
SLANT "R"
SETWIDTH_NAME "Normal"
ADD_STYLE_NAME ""
AVERAGE_WIDTH 98
CHARSET_REGISTRY "RAWIN"
CHARSET_ENCODING "R"
PIXEL_SIZE 18
POINT_SIZE 180
RESOLUTION_X 75
RESOLUTION_Y 75
COPYRIGHT "Copyright (C) 1990, 1991 EWT Consulting, Portions Copyright (C) 1994 Cronyx Ltd."
ENDPROPERTIES
CHARS 224
STARTCHAR space
ENCODING 32
SWIDTH 241 0
DWIDTH 7 0
BBX 7 29 0 -6
BITMAP
00
00
00
00
00
00
00
00
00
00
00
00
00
00
00
00
00
00
00
00
00
00
00
00
00
00
00
00
00
ENDCHAR
STARTCHAR exclam
ENCODING 33
SWIDTH 241 0
DWIDTH 7 0
BBX 7 29 0 -6
BITMAP
00
00
00
00
00
00
38
38
38
38
38
38
38
38
38
38
38
38
38
00
00
38
38
00
00
00
00
00
00
ENDCHAR
STARTCHAR quotedbl
ENCODING 34
SWIDTH 310 0
DWIDTH 9 0
BBX 9 29 0 -6
BITMAP
0000
0000
0000
0000
0000
0000
7700
7700
7700
7700
7700
7700
0000
0000
0000
0000
0000
0000
0000
0000
0000
0000
0000
0000
0000
0000
0000
0000
0000
ENDCHAR
STARTCHAR numbersign
ENCODING 35
SWIDTH 482 0
DWIDTH 14 0
BBX 14 29 0 -6
BITMAP
0000
0000
0000
0000
0000
0000
0770
0770
0770
0EE0
0EE0
3FF8
3FF8
0EE0
1DC0
1DC0
7FF0
7FF0
1DC0
1DC0
3B80
3B80
3B80
0000
0000
0000
0000
0000
0000
ENDCHAR
STARTCHAR dollar
ENCODING 36
SWIDTH 482 0
DWIDTH 14 0
BBX 14 29 0 -6
BITMAP
0000
0000
0000
0000
0000
0300
0FC0
3FF0
3B78
7338
7300
7300
3B00
3FC0
0FF0
0370
0338
0338
0338
7338
7B70
3FF0
0FC0
0300
0300
0000
0000
0000
0000
ENDCHAR
STARTCHAR percent
ENCODING 37
SWIDTH 793 0
DWIDTH 23 0
BBX 23 29 0 -6
BITMAP
000000
000000
000000
000000
000000
000000
1F01C0
3F81C0
7BC380
71C700
71C700
7BCE00
3F9C00
1F1C00
003800
0071F0
0073F8
00E7BC
01C71C
01C71C
0387BC
0703F8
0701F0
000000
000000
000000
000000
000000
000000
ENDCHAR
STARTCHAR ampersand
ENCODING 38
SWIDTH 586 0
DWIDTH 17 0
BBX 17 29 0 -6
BITMAP
000000
000000
000000
000000
000000
000000
078000
0FC000
1CE000
1CE000
1CE000
0FC000
0FC000
078000
1FC000
3DCE00
39EE00
70FE00
707C00
703C00
387C00
3FFE00
0FCF00
000000
000000
000000
000000
000000
000000
ENDCHAR
STARTCHAR quoteright
ENCODING 39
SWIDTH 172 0
DWIDTH 5 0
BBX 5 29 0 -6
BITMAP
00
00
00
00
00
00
70
70
70
70
70
70
00
00
00
00
00
00
00
00
00
00
00
00
00
00
00
00
00
ENDCHAR
STARTCHAR parenleft
ENCODING 40
SWIDTH 310 0
DWIDTH 9 0
BBX 9 29 0 -6
BITMAP
0000
0000
0000
0000
0000
0000
0700
0E00
0E00
1C00
1C00
1C00
3800
3800
3800
3800
3800
3800
3800
3800
3800
3800
1C00
1C00
1C00
0E00
0E00
0700
0000
ENDCHAR
STARTCHAR parenright
ENCODING 41
SWIDTH 310 0
DWIDTH 9 0
BBX 9 29 0 -6
BITMAP
0000
0000
0000
0000
0000
0000
7000
3800
3800
1C00
1C00
1C00
0E00
0E00
0E00
0E00
0E00
0E00
0E00
0E00
0E00
0E00
1C00
1C00
1C00
3800
3800
7000
0000
ENDCHAR
STARTCHAR asterisk
ENCODING 42
SWIDTH 379 0
DWIDTH 11 0
BBX 11 29 0 -6
BITMAP
0000
0000
0000
0000
0000
0000
0600
0600
3FC0
1F80
0F00
1F80
1980
0000
0000
0000
0000
0000
0000
0000
0000
0000
0000
0000
0000
0000
0000
0000
0000
ENDCHAR
STARTCHAR plus
ENCODING 43
SWIDTH 517 0
DWIDTH 15 0
BBX 15 29 0 -6
BITMAP
0000
0000
0000
0000
0000
0000
0000
0000
0000
0380
0380
0380
0380
3FF8
3FF8
0380
0380
0380
0380
0000
0000
0000
0000
0000
0000
0000
0000
0000
0000
ENDCHAR
STARTCHAR comma
ENCODING 44
SWIDTH 241 0
DWIDTH 7 0
BBX 7 29 0 -6
BITMAP
00
00
00
00
00
00
00
00
00
00
00
00
00
00
00
00
00
00
00
00
00
38
38
18
30
00
00
00
00
ENDCHAR
STARTCHAR minus
ENCODING 45
SWIDTH 310 0
DWIDTH 9 0
BBX 9 29 0 -6
BITMAP
0000
0000
0000
0000
0000
0000
0000
0000
0000
0000
0000
0000
0000
0000
0000
0000
7F00
7F00
0000
0000
0000
0000
0000
0000
0000
0000
0000
0000
0000
ENDCHAR
STARTCHAR period
ENCODING 46
SWIDTH 241 0
DWIDTH 7 0
BBX 7 29 0 -6
BITMAP
00
00
00
00
00
00
00
00
00
00
00
00
00
00
00
00
00
00
00
00
00
38
38
00
00
00
00
00
00
ENDCHAR
STARTCHAR slash
ENCODING 47
SWIDTH 275 0
DWIDTH 8 0
BBX 8 29 0 -6
BITMAP
00
00
00
00
00
00
07
07
0E
0E
0E
1C
1C
1C
38
38
38
70
70
70
E0
E0
E0
00
00
00
00
00
00
ENDCHAR
STARTCHAR zero
ENCODING 48
SWIDTH 482 0
DWIDTH 14 0
BBX 14 29 0 -6
BITMAP
0000
0000
0000
0000
0000
0000
0780
1FE0
3CF0
3870
7038
7038
7038
7038
7038
7038
7038
7038
7038
3870
3CF0
1FE0
0780
0000
0000
0000
0000
0000
0000
ENDCHAR
STARTCHAR one
ENCODING 49
SWIDTH 482 0
DWIDTH 14 0
BBX 14 29 0 -6
BITMAP
0000
0000
0000
0000
0000
0000
0380
0780
3F80
3F80
0380
0380
0380
0380
0380
0380
0380
0380
0380
0380
0380
0380
0380
0000
0000
0000
0000
0000
0000
ENDCHAR
STARTCHAR two
ENCODING 50
SWIDTH 482 0
DWIDTH 14 0
BBX 14 29 0 -6
BITMAP
0000
0000
0000
0000
0000
0000
0FC0
3FF0
3CF0
7878
7038
0038
0078
00F0
03F0
07C0
0F00
1E00
3C00
3800
7800
7FF8
7FF8
0000
0000
0000
0000
0000
0000
ENDCHAR
STARTCHAR three
ENCODING 51
SWIDTH 482 0
DWIDTH 14 0
BBX 14 29 0 -6
BITMAP
0000
0000
0000
0000
0000
0000
0FC0
3FF0
3CF0
7878
7038
0070
00F0
07E0
07E0
00F0
0078
7038
7038
7878
3CF0
3FF0
0FC0
0000
0000
0000
0000
0000
0000
ENDCHAR
STARTCHAR four
ENCODING 52
SWIDTH 482 0
DWIDTH 14 0
BBX 14 29 0 -6
BITMAP
0000
0000
0000
0000
0000
0000
00F0
01F0
03F0
03F0
07F0
0F70
0E70
1E70
3C70
3870
7870
7FF8
7FF8
0070
0070
0070
0070
0000
0000
0000
0000
0000
0000
ENDCHAR
STARTCHAR five
ENCODING 53
SWIDTH 482 0
DWIDTH 14 0
BBX 14 29 0 -6
BITMAP
0000
0000
0000
0000
0000
0000
1FF8
1FF8
1C00
3800
3800
3800
7FC0
7FF0
70F0
0078
0038
0038
0038
7078
78F0
3FF0
0FC0
0000
0000
0000
0000
0000
0000
ENDCHAR
STARTCHAR six
ENCODING 54
SWIDTH 482 0
DWIDTH 14 0
BBX 14 29 0 -6
BITMAP
0000
0000
0000
0000
0000
0000
07C0
1FF0
3C70
3838
7000
7000
77C0
7FF0
7CF0
7878
7038
7038
7038
7878
3CF0
3FF0
0FC0
0000
0000
0000
0000
0000
0000
ENDCHAR
STARTCHAR seven
ENCODING 55
SWIDTH 482 0
DWIDTH 14 0
BBX 14 29 0 -6
BITMAP
0000
0000
0000
0000
0000
0000
7FF8
7FF8
0070
00F0
00E0
01E0
01C0
03C0
0380
0780
0700
0700
0F00
0E00
0E00
0E00
0E00
0000
0000
0000
0000
0000
0000
ENDCHAR
STARTCHAR eight
ENCODING 56
SWIDTH 482 0
DWIDTH 14 0
BBX 14 29 0 -6
BITMAP
0000
0000
0000
0000
0000
0000
0780
1FE0
1CE0
3870
3870
3870
1CE0
1FE0
1FE0
3CF0
7878
7038
7038
7878
3CF0
3FF0
0FC0
0000
0000
0000
0000
0000
0000
ENDCHAR
STARTCHAR nine
ENCODING 57
SWIDTH 482 0
DWIDTH 14 0
BBX 14 29 0 -6
BITMAP
0000
0000
0000
0000
0000
0000
0FC0
3FF0
3CF0
7878
7038
7038
7038
7878
3CF8
3FF8
0FF8
0038
0038
7070
38F0
3FE0
0F80
0000
0000
0000
0000
0000
0000
ENDCHAR
STARTCHAR colon
ENCODING 58
SWIDTH 241 0
DWIDTH 7 0
BBX 7 29 0 -6
BITMAP
00
00
00
00
00
00
00
00
00
00
00
38
38
00
00
00
00
00
00
00
00
38
38
00
00
00
00
00
00
ENDCHAR
STARTCHAR semicolon
ENCODING 59
SWIDTH 241 0
DWIDTH 7 0
BBX 7 29 0 -6
BITMAP
00
00
00
00
00
00
00
00
00
00
00
38
38
00
00
00
00
00
00
00
00
38
38
18
30
00
00
00
00
ENDCHAR
STARTCHAR less
ENCODING 60
SWIDTH 517 0
DWIDTH 15 0
BBX 15 29 0 -6
BITMAP
0000
0000
0000
0000
0000
0000
0000
000C
003C
0078
01E0
03C0
0F00
1E00
7800
7800
1E00
0F00
03C0
01E0
0078
003C
000C
0000
0000
0000
0000
0000
0000
ENDCHAR
STARTCHAR equal
ENCODING 61
SWIDTH 517 0
DWIDTH 15 0
BBX 15 29 0 -6
BITMAP
0000
0000
0000
0000
0000
0000
0000
0000
0000
0000
7FFC
7FFC
0000
0000
0000
0000
7FFC
7FFC
0000
0000
0000
0000
0000
0000
0000
0000
0000
0000
0000
ENDCHAR
STARTCHAR greater
ENCODING 62
SWIDTH 517 0
DWIDTH 15 0
BBX 15 29 0 -6
BITMAP
0000
0000
0000
0000
0000
0000
0000
6000
7800
3C00
0F00
0780
01E0
00F0
003C
003C
00F0
01E0
0780
0F00
3C00
7800
6000
0000
0000
0000
0000
0000
0000
ENDCHAR
STARTCHAR question
ENCODING 63
SWIDTH 448 0
DWIDTH 13 0
BBX 13 29 0 -6
BITMAP
0000
0000
0000
0000
0000
0000
0F80
3FE0
38E0
7070
7070
00F0
01E0
03C0
0380
0700
0700
0700
0000
0000
0000
0700
0700
0000
0000
0000
0000
0000
0000
ENDCHAR
STARTCHAR at
ENCODING 64
SWIDTH 862 0
DWIDTH 25 0
BBX 25 29 0 -6
BITMAP
00000000
00000000
00000000
00000000
00000000
00000000
007F0000
01FFC000
0780F000
0E003800
1C001C00
183F0C00
38FFEE00
31E3E600
71C1C700
7381C700
73838700
73838600
73870E00
31C71C00
39FFBC00
1879F000
1C000000
0E000000
0781C000
01FF8000
007E0000
00000000
00000000
ENDCHAR
STARTCHAR A
ENCODING 65
SWIDTH 551 0
DWIDTH 16 0
BBX 16 29 0 -6
BITMAP
0000
0000
0000
0000
0000
0000
03C0
03C0
07E0
07E0
07E0
0FF0
0E70
0E70
1E78
1C38
3C3C
3FFC
3FFC
781E
700E
F00F
F00F
0000
0000
0000
0000
0000
0000
ENDCHAR
STARTCHAR B
ENCODING 66
SWIDTH 586 0
DWIDTH 17 0
BBX 17 29 0 -6
BITMAP
000000
000000
000000
000000
000000
000000
3FF000
3FFC00
381C00
380E00
380E00
380E00
381E00
3FFC00
3FFE00
380E00
380700
380700
380700
380700
380E00
3FFE00
3FF800
000000
000000
000000
000000
000000
000000
ENDCHAR
STARTCHAR C
ENCODING 67
SWIDTH 620 0
DWIDTH 18 0
BBX 18 29 0 -6
BITMAP
000000
000000
000000
000000
000000
000000
03FC00
0FFF00
1F0F80
3C0380
3801C0
7801C0
700000
700000
700000
700000
700000
7801C0
3801C0
3C0380
1F0F80
0FFF00
03FC00
000000
000000
000000
000000
000000
000000
ENDCHAR
STARTCHAR D
ENCODING 68
SWIDTH 620 0
DWIDTH 18 0
BBX 18 29 0 -6
BITMAP
000000
000000
000000
000000
000000
000000
3FF000
3FFC00
383E00
380F00
380700
380780
380380
380380
380380
380380
380380
380780
380700
380F00
383E00
3FFC00
3FF000
000000
000000
000000
000000
000000
000000
ENDCHAR
STARTCHAR E
ENCODING 69
SWIDTH 586 0
DWIDTH 17 0
BBX 17 29 0 -6
BITMAP
000000
000000
000000
000000
000000
000000
3FFF00
3FFF00
380000
380000
380000
380000
380000
3FFC00
3FFC00
380000
380000
380000
380000
380000
380000
3FFF00
3FFF00
000000
000000
000000
000000
000000
000000
ENDCHAR
STARTCHAR F
ENCODING 70
SWIDTH 551 0
DWIDTH 16 0
BBX 16 29 0 -6
BITMAP
0000
0000
0000
0000
0000
0000
3FFF
3FFF
3800
3800
3800
3800
3800
3FFC
3FFC
3800
3800
3800
3800
3800
3800
3800
3800
0000
0000
0000
0000
0000
0000
ENDCHAR
STARTCHAR G
ENCODING 71
SWIDTH 655 0
DWIDTH 19 0
BBX 19 29 0 -6
BITMAP
000000
000000
000000
000000
000000
000000
03FC00
0FFF00
1F0F80
3C0380
3801C0
7801C0
700000
700000
700000
703FC0
703FC0
7801C0
3801C0
3C03C0
1F0FC0
0FFFC0
03FCC0
000000
000000
000000
000000
000000
000000
ENDCHAR
STARTCHAR H
ENCODING 72
SWIDTH 620 0
DWIDTH 18 0
BBX 18 29 0 -6
BITMAP
000000
000000
000000
000000
000000
000000
380700
380700
380700
380700
380700
380700
380700
3FFF00
3FFF00
380700
380700
380700
380700
380700
380700
380700
380700
000000
000000
000000
000000
000000
000000
ENDCHAR
STARTCHAR I
ENCODING 73
SWIDTH 241 0
DWIDTH 7 0
BBX 7 29 0 -6
BITMAP
00
00
00
00
00
00
38
38
38
38
38
38
38
38
38
38
38
38
38
38
38
38
38
00
00
00
00
00
00
ENDCHAR
STARTCHAR J
ENCODING 74
SWIDTH 448 0
DWIDTH 13 0
BBX 13 29 0 -6
BITMAP
0000
0000
0000
0000
0000
0000
00E0
00E0
00E0
00E0
00E0
00E0
00E0
00E0
00E0
00E0
00E0
00E0
E0E0
E0E0
71C0
7FC0
1F00
0000
0000
0000
0000
0000
0000
ENDCHAR
STARTCHAR K
ENCODING 75
SWIDTH 586 0
DWIDTH 17 0
BBX 17 29 0 -6
BITMAP
000000
000000
000000
000000
000000
000000
380F00
381E00
383C00
387800
38F000
39E000
3BC000
3FE000
3FE000
3EF000
3C7800
383800
383C00
381E00
380E00
380F00
380780
000000
000000
000000
000000
000000
000000
ENDCHAR
STARTCHAR L
ENCODING 76
SWIDTH 482 0
DWIDTH 14 0
BBX 14 29 0 -6
BITMAP
0000
0000
0000
0000
0000
0000
3800
3800
3800
3800
3800
3800
3800
3800
3800
3800
3800
3800
3800
3800
3800
3FFC
3FFC
0000
0000
0000
0000
0000
0000
ENDCHAR
STARTCHAR M
ENCODING 77
SWIDTH 724 0
DWIDTH 21 0
BBX 21 29 0 -6
BITMAP
000000
000000
000000
000000
000000
000000
3800E0
3800E0
3C01E0
3C01E0
3E03E0
3E03E0
3F07E0
3F07E0
3F8FE0
3B8EE0
3BDEE0
39DCE0
39FCE0
38F8E0
38F8E0
3870E0
3870E0
000000
000000
000000
000000
000000
000000
ENDCHAR
STARTCHAR N
ENCODING 78
SWIDTH 655 0
DWIDTH 19 0
BBX 19 29 0 -6
BITMAP
000000
000000
000000
000000
000000
000000
380380
3C0380
3E0380
3F0380
3F0380
3F8380
3BC380
39E380
38E380
38F380
387B80
383F80
381F80
381F80
380F80
380780
380380
000000
000000
000000
000000
000000
000000
ENDCHAR
STARTCHAR O
ENCODING 79
SWIDTH 689 0
DWIDTH 20 0
BBX 20 29 0 -6
BITMAP
000000
000000
000000
000000
000000
000000
03FC00
0FFF00
1F0F80
3C03C0
3801C0
7801E0
7000E0
7000E0
7000E0
7000E0
7000E0
7801E0
3801C0
3C03C0
1F0F80
0FFF00
03FC00
000000
000000
000000
000000
000000
000000
ENDCHAR
STARTCHAR P
ENCODING 80
SWIDTH 586 0
DWIDTH 17 0
BBX 17 29 0 -6
BITMAP
000000
000000
000000
000000
000000
000000
3FFC00
3FFF00
380700
380380
380380
380380
380380
380700
3FFF00
3FFC00
380000
380000
380000
380000
380000
380000
380000
000000
000000
000000
000000
000000
000000
ENDCHAR
STARTCHAR Q
ENCODING 81
SWIDTH 689 0
DWIDTH 20 0
BBX 20 29 0 -6
BITMAP
000000
000000
000000
000000
000000
000000
03FC00
0FFF00
1F0F80
3C03C0
3801C0
7801E0
7000E0
7000E0
7000E0
7000E0
7000E0
7819E0
383DC0
3C1FC0
1F0F80
0FFF80
03FFC0
0001E0
0000C0
000000
000000
000000
000000
ENDCHAR
STARTCHAR R
ENCODING 82
SWIDTH 620 0
DWIDTH 18 0
BBX 18 29 0 -6
BITMAP
000000
000000
000000
000000
000000
000000
3FFC00
3FFF00
380700
380380
380380
380380
380380
380700
3FFF00
3FFE00
380F00
380700
380380
380380
380380
3803C0
3801C0
000000
000000
000000
000000
000000
000000
ENDCHAR
STARTCHAR S
ENCODING 83
SWIDTH 586 0
DWIDTH 17 0
BBX 17 29 0 -6
BITMAP
000000
000000
000000
000000
000000
000000
07F000
1FFC00
1C1E00
380E00
380000
380000
1C0000
1FF800
07FE00
000E00
000700
000700
700700
780700
3E0E00
1FFE00
07F800
000000
000000
000000
000000
000000
000000
ENDCHAR
STARTCHAR T
ENCODING 84
SWIDTH 586 0
DWIDTH 17 0
BBX 17 29 0 -6
BITMAP
000000
000000
000000
000000
000000
000000
FFFF80
FFFF80
01C000
01C000
01C000
01C000
01C000
01C000
01C000
01C000
01C000
01C000
01C000
01C000
01C000
01C000
01C000
000000
000000
000000
000000
000000
000000
ENDCHAR
STARTCHAR U
ENCODING 85
SWIDTH 620 0
DWIDTH 18 0
BBX 18 29 0 -6
BITMAP
000000
000000
000000
000000
000000
000000
380700
380700
380700
380700
380700
380700
380700
380700
380700
380700
380700
380700
380700
1C0E00
1E1E00
0FFC00
03F000
000000
000000
000000
000000
000000
000000
ENDCHAR
STARTCHAR V
ENCODING 86
SWIDTH 551 0
DWIDTH 16 0
BBX 16 29 0 -6
BITMAP
0000
0000
0000
0000
0000
0000
F00F
F00F
700E
781E
381C
381C
3C3C
1C38
1E78
0E70
0E70
0FF0
07E0
07E0
07E0
03C0
03C0
0000
0000
0000
0000
0000
0000
ENDCHAR
STARTCHAR W
ENCODING 87
SWIDTH 793 0
DWIDTH 23 0
BBX 23 29 0 -6
BITMAP
000000
000000
000000
000000
000000
000000
E0380E
E0380E
F0381E
707C1C
707C1C
78FE3C
38EE38
38EE38
3DEF78
1DC770
1DC770
1FC7F0
0F83E0
0F83E0
0701C0
0701C0
0701C0
000000
000000
000000
000000
000000
000000
ENDCHAR
STARTCHAR X
ENCODING 88
SWIDTH 620 0
DWIDTH 18 0
BBX 18 29 0 -6
BITMAP
000000
000000
000000
000000
000000
000000
E001C0
F003C0
780780
3C0F00
1E1E00
0F3C00
07F800
03F000
01E000
03F000
07F800
0F3C00
1E1E00
3C0F00
780780
F003C0
E001C0
000000
000000
000000
000000
000000
000000
ENDCHAR
STARTCHAR Y
ENCODING 89
SWIDTH 586 0
DWIDTH 17 0
BBX 17 29 0 -6
BITMAP
000000
000000
000000
000000
000000
000000
E00380
F00780
780F00
3C1E00
1E3C00
0F7800
07F000
03E000
01C000
01C000
01C000
01C000
01C000
01C000
01C000
01C000
01C000
000000
000000
000000
000000
000000
000000
ENDCHAR
STARTCHAR Z
ENCODING 90
SWIDTH 517 0
DWIDTH 15 0
BBX 15 29 0 -6
BITMAP
0000
0000
0000
0000
0000
0000
7FFC
7FFC
0078
0070
00F0
01E0
01C0
03C0
0780
0F00
0E00
1E00
3C00
3800
7800
FFFE
FFFE
0000
0000
0000
0000
0000
0000
ENDCHAR
STARTCHAR bracketleft
ENCODING 91
SWIDTH 275 0
DWIDTH 8 0
BBX 8 29 0 -6
BITMAP
00
00
00
00
00
00
3E
3E
38
38
38
38
38
38
38
38
38
38
38
38
38
38
38
38
38
38
3E
3E
00
ENDCHAR
STARTCHAR backslash
ENCODING 92
SWIDTH 275 0
DWIDTH 8 0
BBX 8 29 0 -6
BITMAP
00
00
00
00
00
00
E0
E0
70
70
70
38
38
38
1C
1C
1C
0E
0E
0E
07
07
07
00
00
00
00
00
00
ENDCHAR
STARTCHAR bracketright
ENCODING 93
SWIDTH 275 0
DWIDTH 8 0
BBX 8 29 0 -6
BITMAP
00
00
00
00
00
00
7C
7C
1C
1C
1C
1C
1C
1C
1C
1C
1C
1C
1C
1C
1C
1C
1C
1C
1C
1C
7C
7C
00
ENDCHAR
STARTCHAR asciicircum
ENCODING 94
SWIDTH 413 0
DWIDTH 12 0
BBX 12 29 0 -6
BITMAP
0000
0000
0000
0000
0000
0000
0F00
1F80
3FC0
70E0
0000
0000
0000
0000
0000
0000
0000
0000
0000
0000
0000
0000
0000
0000
0000
0000
0000
0000
0000
ENDCHAR
STARTCHAR underscore
ENCODING 95
SWIDTH 482 0
DWIDTH 14 0
BBX 14 29 0 -6
BITMAP
0000
0000
0000
0000
0000
0000
0000
0000
0000
0000
0000
0000
0000
0000
0000
0000
0000
0000
0000
0000
0000
0000
0000
0000
FFFC
FFFC
0000
0000
0000
ENDCHAR
STARTCHAR quoteleft
ENCODING 96
SWIDTH 310 0
DWIDTH 9 0
BBX 9 29 0 -6
BITMAP
0000
0000
0000
0000
0000
0000
7800
3C00
0E00
0300
0000
0000
0000
0000
0000
0000
0000
0000
0000
0000
0000
0000
0000
0000
0000
0000
0000
0000
0000
ENDCHAR
STARTCHAR a
ENCODING 97
SWIDTH 482 0
DWIDTH 14 0
BBX 14 29 0 -6
BITMAP
0000
0000
0000
0000
0000
0000
0000
0000
0000
0000
0000
0F80
3FE0
38E0
0070
00F0
0FF0
3FF0
7870
7070
78F0
3FFC
1FBC
0000
0000
0000
0000
0000
0000
ENDCHAR
STARTCHAR b
ENCODING 98
SWIDTH 517 0
DWIDTH 15 0
BBX 15 29 0 -6
BITMAP
0000
0000
0000
0000
0000
0000
3800
3800
3800
3800
3800
3FE0
3FF8
3C78
383C
381C
381C
381C
381C
383C
3C78
3FF8
3FE0
0000
0000
0000
0000
0000
0000
ENDCHAR
STARTCHAR c
ENCODING 99
SWIDTH 448 0
DWIDTH 13 0
BBX 13 29 0 -6
BITMAP
0000
0000
0000
0000
0000
0000
0000
0000
0000
0000
0000
07C0
1FF0
3C78
3838
7000
7000
7000
7000
3838
3C78
1FF0
07C0
0000
0000
0000
0000
0000
0000
ENDCHAR
STARTCHAR d
ENCODING 100
SWIDTH 517 0
DWIDTH 15 0
BBX 15 29 0 -6
BITMAP
0000
0000
0000
0000
0000
0000
0038
0038
0038
0038
0038
0FF8
3FF8
3C78
7838
7038
7038
7038
7038
7838
3C78
3FF8
0FF8
0000
0000
0000
0000
0000
0000
ENDCHAR
STARTCHAR e
ENCODING 101
SWIDTH 517 0
DWIDTH 15 0
BBX 15 29 0 -6
BITMAP
0000
0000
0000
0000
0000
0000
0000
0000
0000
0000
0000
07C0
1FF0
3C78
3838
701C
7FFC
7FFC
7000
3800
3C3C
1FF8
07E0
0000
0000
0000
0000
0000
0000
ENDCHAR
STARTCHAR f
ENCODING 102
SWIDTH 241 0
DWIDTH 7 0
BBX 7 29 0 -6
BITMAP
00
00
00
00
00
00
1E
3E
38
38
38
FE
FE
38
38
38
38
38
38
38
38
38
38
00
00
00
00
00
00
ENDCHAR
STARTCHAR g
ENCODING 103
SWIDTH 517 0
DWIDTH 15 0
BBX 15 29 0 -6
BITMAP
0000
0000
0000
0000
0000
0000
0000
0000
0000
0000
0000
0FF8
3FF8
3C78
7838
7038
7038
7038
7038
7838
3C78
3FF8
0FF8
0038
0038
3870
3FF0
0FC0
0000
ENDCHAR
STARTCHAR h
ENCODING 104
SWIDTH 482 0
DWIDTH 14 0
BBX 14 29 0 -6
BITMAP
0000
0000
0000
0000
0000
0000
3800
3800
3800
3800
3800
3F80
3FE0
3CE0
3870
3870
3870
3870
3870
3870
3870
3870
3870
0000
0000
0000
0000
0000
0000
ENDCHAR
STARTCHAR i
ENCODING 105
SWIDTH 241 0
DWIDTH 7 0
BBX 7 29 0 -6
BITMAP
00
00
00
00
00
00
38
38
00
00
00
38
38
38
38
38
38
38
38
38
38
38
38
00
00
00
00
00
00
ENDCHAR
STARTCHAR j
ENCODING 106
SWIDTH 241 0
DWIDTH 7 0
BBX 7 29 0 -6
BITMAP
00
00
00
00
00
00
38
38
00
00
00
38
38
38
38
38
38
38
38
38
38
38
38
38
38
38
F8
F0
00
ENDCHAR
STARTCHAR k
ENCODING 107
SWIDTH 448 0
DWIDTH 13 0
BBX 13 29 0 -6
BITMAP
0000
0000
0000
0000
0000
0000
3800
3800
3800
3800
3800
38F0
39E0
3BC0
3F80
3F00
3F80
3FC0
39C0
39E0
38F0
3870
3878
0000
0000
0000
0000
0000
0000
ENDCHAR
STARTCHAR l
ENCODING 108
SWIDTH 241 0
DWIDTH 7 0
BBX 7 29 0 -6
BITMAP
00
00
00
00
00
00
38
38
38
38
38
38
38
38
38
38
38
38
38
38
38
38
38
00
00
00
00
00
00
ENDCHAR
STARTCHAR m
ENCODING 109
SWIDTH 724 0
DWIDTH 21 0
BBX 21 29 0 -6
BITMAP
000000
000000
000000
000000
000000
000000
000000
000000
000000
000000
000000
3FCF80
3FFFC0
3CF9C0
3870E0
3870E0
3870E0
3870E0
3870E0
3870E0
3870E0
3870E0
3870E0
000000
000000
000000
000000
000000
000000
ENDCHAR
STARTCHAR n
ENCODING 110
SWIDTH 482 0
DWIDTH 14 0
BBX 14 29 0 -6
BITMAP
0000
0000
0000
0000
0000
0000
0000
0000
0000
0000
0000
3F80
3FE0
3CE0
3870
3870
3870
3870
3870
3870
3870
3870
3870
0000
0000
0000
0000
0000
0000
ENDCHAR
STARTCHAR o
ENCODING 111
SWIDTH 517 0
DWIDTH 15 0
BBX 15 29 0 -6
BITMAP
0000
0000
0000
0000
0000
0000
0000
0000
0000
0000
0000
0FE0
3FF8
3C78
783C
701C
701C
701C
701C
783C
3C78
3FF8
0FE0
0000
0000
0000
0000
0000
0000
ENDCHAR
STARTCHAR p
ENCODING 112
SWIDTH 517 0
DWIDTH 15 0
BBX 15 29 0 -6
BITMAP
0000
0000
0000
0000
0000
0000
0000
0000
0000
0000
0000
3FE0
3FF8
3C78
383C
381C
381C
381C
381C
383C
3C78
3FF8
3FE0
3800
3800
3800
3800
3800
0000
ENDCHAR
STARTCHAR q
ENCODING 113
SWIDTH 517 0
DWIDTH 15 0
BBX 15 29 0 -6
BITMAP
0000
0000
0000
0000
0000
0000
0000
0000
0000
0000
0000
0FF8
3FF8
3C78
7838
7038
7038
7038
7038
7838
3C78
3FF8
0FF8
0038
0038
0038
0038
0038
0000
ENDCHAR
STARTCHAR r
ENCODING 114
SWIDTH 310 0
DWIDTH 9 0
BBX 9 29 0 -6
BITMAP
0000
0000
0000
0000
0000
0000
0000
0000
0000
0000
0000
3B80
3F80
3E00
3C00
3800
3800
3800
3800
3800
3800
3800
3800
0000
0000
0000
0000
0000
0000
ENDCHAR
STARTCHAR s
ENCODING 115
SWIDTH 448 0
DWIDTH 13 0
BBX 13 29 0 -6
BITMAP
0000
0000
0000
0000
0000
0000
0000
0000
0000
0000
0000
1F80
3FE0
78E0
7000
7C00
3FC0
0FE0
01F0
0070
70F0
7FE0
1FC0
0000
0000
0000
0000
0000
0000
ENDCHAR
STARTCHAR t
ENCODING 116
SWIDTH 241 0
DWIDTH 7 0
BBX 7 29 0 -6
BITMAP
00
00
00
00
00
00
00
00
38
38
38
FE
FE
38
38
38
38
38
38
38
38
3E
1E
00
00
00
00
00
00
ENDCHAR
STARTCHAR u
ENCODING 117
SWIDTH 482 0
DWIDTH 14 0
BBX 14 29 0 -6
BITMAP
0000
0000
0000
0000
0000
0000
0000
0000
0000
0000
0000
3870
3870
3870
3870
3870
3870
3870
3870
3870
1CF0
1FF0
07F0
0000
0000
0000
0000
0000
0000
ENDCHAR
STARTCHAR v
ENCODING 118
SWIDTH 413 0
DWIDTH 12 0
BBX 12 29 0 -6
BITMAP
0000
0000
0000
0000
0000
0000
0000
0000
0000
0000
0000
E070
E070
F0F0
70E0
79E0
39C0
39C0
3FC0
1F80
1F80
0F00
0F00
0000
0000
0000
0000
0000
0000
ENDCHAR
STARTCHAR w
ENCODING 119
SWIDTH 655 0
DWIDTH 19 0
BBX 19 29 0 -6
BITMAP
000000
000000
000000
000000
000000
000000
000000
000000
000000
000000
000000
E0E0E0
E0E0E0
F1F1E0
71F1C0
7BFBC0
3BBB80
3BBB80
3FBF80
1F1F00
1F1F00
0E0E00
0E0E00
000000
000000
000000
000000
000000
000000
ENDCHAR
STARTCHAR x
ENCODING 120
SWIDTH 413 0
DWIDTH 12 0
BBX 12 29 0 -6
BITMAP
0000
0000
0000
0000
0000
0000
0000
0000
0000
0000
0000
E070
F0F0
79E0
3FC0
1F80
0F00
0F00
1F80
3FC0
79E0
F0F0
E070
0000
0000
0000
0000
0000
0000
ENDCHAR
STARTCHAR y
ENCODING 121
SWIDTH 413 0
DWIDTH 12 0
BBX 12 29 0 -6
BITMAP
0000
0000
0000
0000
0000
0000
0000
0000
0000
0000
0000
E070
E070
F0F0
70E0
79E0
39C0
39C0
3FC0
1F80
1F80
0F00
0F00
0E00
1E00
1C00
FC00
F800
0000
ENDCHAR
STARTCHAR z
ENCODING 122
SWIDTH 413 0
DWIDTH 12 0
BBX 12 29 0 -6
BITMAP
0000
0000
0000
0000
0000
0000
0000
0000
0000
0000
0000
7FF0
7FF0
01E0
03C0
0780
0F00
0F00
1E00
3C00
7800
FFF0
FFF0
0000
0000
0000
0000
0000
0000
ENDCHAR
STARTCHAR braceleft
ENCODING 123
SWIDTH 344 0
DWIDTH 10 0
BBX 10 29 0 -6
BITMAP
0000
0000
0000
0000
0000
0000
0700
0F00
1E00
1C00
1C00
1C00
1C00
1C00
1C00
3800
7000
7000
3800
1C00
1C00
1C00
1C00
1C00
1C00
1E00
0F00
0700
0000
ENDCHAR
STARTCHAR bar
ENCODING 124
SWIDTH 241 0
DWIDTH 7 0
BBX 7 29 0 -6
BITMAP
00
00
00
00
00
00
38
38
38
38
38
38
38
38
38
38
00
00
00
38
38
38
38
38
38
38
38
38
38
ENDCHAR
STARTCHAR braceright
ENCODING 125
SWIDTH 344 0
DWIDTH 10 0
BBX 10 29 0 -6
BITMAP
0000
0000
0000
0000
0000
0000
7000
7800
3800
1C00
1C00
1C00
1C00
1C00
1C00
0E00
0700
0700
0E00
1C00
1C00
1C00
1C00
1C00
1C00
3800
7800
7000
0000
ENDCHAR
STARTCHAR asciitilde
ENCODING 126
SWIDTH 517 0
DWIDTH 15 0
BBX 15 29 0 -6
BITMAP
0000
0000
0000
0000
0000
0000
3E38
7FB8
77F8
71F0
0000
0000
0000
0000
0000
0000
0000
0000
0000
0000
0000
0000
0000
0000
0000
0000
0000
0000
0000
ENDCHAR
STARTCHAR C177
ENCODING -1
SWIDTH 310 0
DWIDTH 9 0
BBX 9 29 0 -6
BITMAP
0000
0000
0000
0000
0000
0000
3E00
3E00
3E00
3E00
3E00
3E00
3E00
3E00
3E00
3E00
3E00
3E00
3E00
3E00
3E00
3E00
3E00
0000
0000
0000
0000
0000
0000
ENDCHAR
STARTCHAR C200
ENCODING -1
SWIDTH 310 0
DWIDTH 9 0
BBX 9 29 0 -6
BITMAP
0000
0000
0000
0000
0000
0000
3E00
3E00
3E00
3E00
3E00
3E00
3E00
3E00
3E00
3E00
3E00
3E00
3E00
3E00
3E00
3E00
3E00
0000
0000
0000
0000
0000
0000
ENDCHAR
STARTCHAR C201
ENCODING -1
SWIDTH 310 0
DWIDTH 9 0
BBX 9 29 0 -6
BITMAP
0000
0000
0000
0000
0000
0000
3E00
3E00
3E00
3E00
3E00
3E00
3E00
3E00
3E00
3E00
3E00
3E00
3E00
3E00
3E00
3E00
3E00
0000
0000
0000
0000
0000
0000
ENDCHAR
STARTCHAR C202
ENCODING -1
SWIDTH 310 0
DWIDTH 9 0
BBX 9 29 0 -6
BITMAP
0000
0000
0000
0000
0000
0000
3E00
3E00
3E00
3E00
3E00
3E00
3E00
3E00
3E00
3E00
3E00
3E00
3E00
3E00
3E00
3E00
3E00
0000
0000
0000
0000
0000
0000
ENDCHAR
STARTCHAR C203
ENCODING -1
SWIDTH 310 0
DWIDTH 9 0
BBX 9 29 0 -6
BITMAP
0000
0000
0000
0000
0000
0000
3E00
3E00
3E00
3E00
3E00
3E00
3E00
3E00
3E00
3E00
3E00
3E00
3E00
3E00
3E00
3E00
3E00
0000
0000
0000
0000
0000
0000
ENDCHAR
STARTCHAR C204
ENCODING -1
SWIDTH 310 0
DWIDTH 9 0
BBX 9 29 0 -6
BITMAP
0000
0000
0000
0000
0000
0000
3E00
3E00
3E00
3E00
3E00
3E00
3E00
3E00
3E00
3E00
3E00
3E00
3E00
3E00
3E00
3E00
3E00
0000
0000
0000
0000
0000
0000
ENDCHAR
STARTCHAR C205
ENCODING -1
SWIDTH 310 0
DWIDTH 9 0
BBX 9 29 0 -6
BITMAP
0000
0000
0000
0000
0000
0000
3E00
3E00
3E00
3E00
3E00
3E00
3E00
3E00
3E00
3E00
3E00
3E00
3E00
3E00
3E00
3E00
3E00
0000
0000
0000
0000
0000
0000
ENDCHAR
STARTCHAR C206
ENCODING -1
SWIDTH 310 0
DWIDTH 9 0
BBX 9 29 0 -6
BITMAP
0000
0000
0000
0000
0000
0000
3E00
3E00
3E00
3E00
3E00
3E00
3E00
3E00
3E00
3E00
3E00
3E00
3E00
3E00
3E00
3E00
3E00
0000
0000
0000
0000
0000
0000
ENDCHAR
STARTCHAR C207
ENCODING -1
SWIDTH 310 0
DWIDTH 9 0
BBX 9 29 0 -6
BITMAP
0000
0000
0000
0000
0000
0000
3E00
3E00
3E00
3E00
3E00
3E00
3E00
3E00
3E00
3E00
3E00
3E00
3E00
3E00
3E00
3E00
3E00
0000
0000
0000
0000
0000
0000
ENDCHAR
STARTCHAR C210
ENCODING -1
SWIDTH 310 0
DWIDTH 9 0
BBX 9 29 0 -6
BITMAP
0000
0000
0000
0000
0000
0000
3E00
3E00
3E00
3E00
3E00
3E00
3E00
3E00
3E00
3E00
3E00
3E00
3E00
3E00
3E00
3E00
3E00
0000
0000
0000
0000
0000
0000
ENDCHAR
STARTCHAR C211
ENCODING -1
SWIDTH 310 0
DWIDTH 9 0
BBX 9 29 0 -6
BITMAP
0000
0000
0000
0000
0000
0000
3E00
3E00
3E00
3E00
3E00
3E00
3E00
3E00
3E00
3E00
3E00
3E00
3E00
3E00
3E00
3E00
3E00
0000
0000
0000
0000
0000
0000
ENDCHAR
STARTCHAR C212
ENCODING -1
SWIDTH 310 0
DWIDTH 9 0
BBX 9 29 0 -6
BITMAP
0000
0000
0000
0000
0000
0000
3E00
3E00
3E00
3E00
3E00
3E00
3E00
3E00
3E00
3E00
3E00
3E00
3E00
3E00
3E00
3E00
3E00
0000
0000
0000
0000
0000
0000
ENDCHAR
STARTCHAR C213
ENCODING -1
SWIDTH 310 0
DWIDTH 9 0
BBX 9 29 0 -6
BITMAP
0000
0000
0000
0000
0000
0000
3E00
3E00
3E00
3E00
3E00
3E00
3E00
3E00
3E00
3E00
3E00
3E00
3E00
3E00
3E00
3E00
3E00
0000
0000
0000
0000
0000
0000
ENDCHAR
STARTCHAR C214
ENCODING -1
SWIDTH 310 0
DWIDTH 9 0
BBX 9 29 0 -6
BITMAP
0000
0000
0000
0000
0000
0000
3E00
3E00
3E00
3E00
3E00
3E00
3E00
3E00
3E00
3E00
3E00
3E00
3E00
3E00
3E00
3E00
3E00
0000
0000
0000
0000
0000
0000
ENDCHAR
STARTCHAR C215
ENCODING -1
SWIDTH 310 0
DWIDTH 9 0
BBX 9 29 0 -6
BITMAP
0000
0000
0000
0000
0000
0000
3E00
3E00
3E00
3E00
3E00
3E00
3E00
3E00
3E00
3E00
3E00
3E00
3E00
3E00
3E00
3E00
3E00
0000
0000
0000
0000
0000
0000
ENDCHAR
STARTCHAR C216
ENCODING -1
SWIDTH 310 0
DWIDTH 9 0
BBX 9 29 0 -6
BITMAP
0000
0000
0000
0000
0000
0000
3E00
3E00
3E00
3E00
3E00
3E00
3E00
3E00
3E00
3E00
3E00
3E00
3E00
3E00
3E00
3E00
3E00
0000
0000
0000
0000
0000
0000
ENDCHAR
STARTCHAR C217
ENCODING -1
SWIDTH 310 0
DWIDTH 9 0
BBX 9 29 0 -6
BITMAP
0000
0000
0000
0000
0000
0000
3E00
3E00
3E00
3E00
3E00
3E00
3E00
3E00
3E00
3E00
3E00
3E00
3E00
3E00
3E00
3E00
3E00
0000
0000
0000
0000
0000
0000
ENDCHAR
STARTCHAR C220
ENCODING -1
SWIDTH 310 0
DWIDTH 9 0
BBX 9 29 0 -6
BITMAP
0000
0000
0000
0000
0000
0000
3E00
3E00
3E00
3E00
3E00
3E00
3E00
3E00
3E00
3E00
3E00
3E00
3E00
3E00
3E00
3E00
3E00
0000
0000
0000
0000
0000
0000
ENDCHAR
STARTCHAR C221
ENCODING -1
SWIDTH 241 0
DWIDTH 7 0
BBX 7 29 0 -6
BITMAP
00
00
00
00
00
00
30
60
70
70
00
00
00
00
00
00
00
00
00
00
00
00
00
00
00
00
00
00
00
ENDCHAR
STARTCHAR C222
ENCODING -1
SWIDTH 241 0
DWIDTH 7 0
BBX 7 29 0 -6
BITMAP
00
00
00
00
00
00
1C
1C
0C
18
00
00
00
00
00
00
00
00
00
00
00
00
00
00
00
00
00
00
00
ENDCHAR
STARTCHAR C223
ENCODING -1
SWIDTH 310 0
DWIDTH 9 0
BBX 9 29 0 -6
BITMAP
0000
0000
0000
0000
0000
0000
3E00
3E00
3E00
3E00
3E00
3E00
3E00
3E00
3E00
3E00
3E00
3E00
3E00
3E00
3E00
3E00
3E00
0000
0000
0000
0000
0000
0000
ENDCHAR
STARTCHAR C224
ENCODING -1
SWIDTH 310 0
DWIDTH 9 0
BBX 9 29 0 -6
BITMAP
0000
0000
0000
0000
0000
0000
3E00
3E00
3E00
3E00
3E00
3E00
3E00
3E00
3E00
3E00
3E00
3E00
3E00
3E00
3E00
3E00
3E00
0000
0000
0000
0000
0000
0000
ENDCHAR
STARTCHAR C225
ENCODING -1
SWIDTH 310 0
DWIDTH 9 0
BBX 9 29 0 -6
BITMAP
0000
0000
0000
0000
0000
0000
3E00
3E00
3E00
3E00
3E00
3E00
3E00
3E00
3E00
3E00
3E00
3E00
3E00
3E00
3E00
3E00
3E00
0000
0000
0000
0000
0000
0000
ENDCHAR
STARTCHAR C226
ENCODING -1
SWIDTH 310 0
DWIDTH 9 0
BBX 9 29 0 -6
BITMAP
0000
0000
0000
0000
0000
0000
3E00
3E00
3E00
3E00
3E00
3E00
3E00
3E00
3E00
3E00
3E00
3E00
3E00
3E00
3E00
3E00
3E00
0000
0000
0000
0000
0000
0000
ENDCHAR
STARTCHAR C227
ENCODING -1
SWIDTH 310 0
DWIDTH 9 0
BBX 9 29 0 -6
BITMAP
0000
0000
0000
0000
0000
0000
3E00
3E00
3E00
3E00
3E00
3E00
3E00
3E00
3E00
3E00
3E00
3E00
3E00
3E00
3E00
3E00
3E00
0000
0000
0000
0000
0000
0000
ENDCHAR
STARTCHAR C230
ENCODING -1
SWIDTH 310 0
DWIDTH 9 0
BBX 9 29 0 -6
BITMAP
0000
0000
0000
0000
0000
0000
3E00
3E00
3E00
3E00
3E00
3E00
3E00
3E00
3E00
3E00
3E00
3E00
3E00
3E00
3E00
3E00
3E00
0000
0000
0000
0000
0000
0000
ENDCHAR
STARTCHAR C231
ENCODING -1
SWIDTH 310 0
DWIDTH 9 0
BBX 9 29 0 -6
BITMAP
0000
0000
0000
0000
0000
0000
3E00
3E00
3E00
3E00
3E00
3E00
3E00
3E00
3E00
3E00
3E00
3E00
3E00
3E00
3E00
3E00
3E00
0000
0000
0000
0000
0000
0000
ENDCHAR
STARTCHAR C232
ENCODING -1
SWIDTH 310 0
DWIDTH 9 0
BBX 9 29 0 -6
BITMAP
0000
0000
0000
0000
0000
0000
3E00
3E00
3E00
3E00
3E00
3E00
3E00
3E00
3E00
3E00
3E00
3E00
3E00
3E00
3E00
3E00
3E00
0000
0000
0000
0000
0000
0000
ENDCHAR
STARTCHAR C233
ENCODING -1
SWIDTH 310 0
DWIDTH 9 0
BBX 9 29 0 -6
BITMAP
0000
0000
0000
0000
0000
0000
3E00
3E00
3E00
3E00
3E00
3E00
3E00
3E00
3E00
3E00
3E00
3E00
3E00
3E00
3E00
3E00
3E00
0000
0000
0000
0000
0000
0000
ENDCHAR
STARTCHAR C234
ENCODING -1
SWIDTH 310 0
DWIDTH 9 0
BBX 9 29 0 -6
BITMAP
0000
0000
0000
0000
0000
0000
3E00
3E00
3E00
3E00
3E00
3E00
3E00
3E00
3E00
3E00
3E00
3E00
3E00
3E00
3E00
3E00
3E00
0000
0000
0000
0000
0000
0000
ENDCHAR
STARTCHAR C235
ENCODING -1
SWIDTH 310 0
DWIDTH 9 0
BBX 9 29 0 -6
BITMAP
0000
0000
0000
0000
0000
0000
3E00
3E00
3E00
3E00
3E00
3E00
3E00
3E00
3E00
3E00
3E00
3E00
3E00
3E00
3E00
3E00
3E00
0000
0000
0000
0000
0000
0000
ENDCHAR
STARTCHAR C236
ENCODING -1
SWIDTH 310 0
DWIDTH 9 0
BBX 9 29 0 -6
BITMAP
0000
0000
0000
0000
0000
0000
3E00
3E00
3E00
3E00
3E00
3E00
3E00
3E00
3E00
3E00
3E00
3E00
3E00
3E00
3E00
3E00
3E00
0000
0000
0000
0000
0000
0000
ENDCHAR
STARTCHAR C237
ENCODING -1
SWIDTH 310 0
DWIDTH 9 0
BBX 9 29 0 -6
BITMAP
0000
0000
0000
0000
0000
0000
3E00
3E00
3E00
3E00
3E00
3E00
3E00
3E00
3E00
3E00
3E00
3E00
3E00
3E00
3E00
3E00
3E00
0000
0000
0000
0000
0000
0000
ENDCHAR
STARTCHAR C240
ENCODING 160
SWIDTH 241 0
DWIDTH 7 0
BBX 7 29 0 -6
BITMAP
00
00
00
00
00
00
00
00
00
00
00
00
00
00
00
00
00
00
00
00
00
00
00
00
00
00
00
00
00
ENDCHAR
STARTCHAR exclamdown
ENCODING 161
SWIDTH 241 0
DWIDTH 7 0
BBX 7 29 0 -6
BITMAP
00
00
00
00
00
00
38
38
00
00
38
38
38
38
38
38
38
38
38
38
38
38
38
00
00
00
00
00
00
ENDCHAR
STARTCHAR cent
ENCODING 162
SWIDTH 482 0
DWIDTH 14 0
BBX 14 29 0 -6
BITMAP
0000
0000
0000
0000
0000
0000
0000
0000
0000
0060
00E0
07C0
1FF0
3DF8
39B8
7380
7300
7300
7700
3E38
3E78
1FF0
0FC0
1C00
1800
0000
0000
0000
0000
ENDCHAR
STARTCHAR sterling
ENCODING 184
SWIDTH 482 0
DWIDTH 14 0
BBX 14 29 0 -6
BITMAP
0000
0000
0000
0000
0000
0000
07E0
0FF0
1E78
1C38
1C00
1C00
1C00
7F80
7F80
0E00
0E00
0E00
0E00
1C00
3FB8
7FF8
3BF0
0000
0000
0000
0000
0000
0000
ENDCHAR
STARTCHAR currency
ENCODING 164
SWIDTH 482 0
DWIDTH 14 0
BBX 14 29 0 -6
BITMAP
0000
0000
0000
0000
0000
0000
0000
3030
7FF8
3FF0
1CE0
3870
3870
3870
1CE0
3FF0
7FF8
3030
0000
0000
0000
0000
0000
0000
0000
0000
0000
0000
0000
ENDCHAR
STARTCHAR yen
ENCODING 165
SWIDTH 482 0
DWIDTH 14 0
BBX 14 29 0 -6
BITMAP
0000
0000
0000
0000
0000
0000
E038
E038
7070
38E0
38E0
1DC0
0F80
0F80
7FF0
0700
0700
7FF0
0700
0700
0700
0700
0700
0000
0000
0000
0000
0000
0000
ENDCHAR
STARTCHAR brokenbar
ENCODING 166
SWIDTH 241 0
DWIDTH 7 0
BBX 7 29 0 -6
BITMAP
00
00
00
00
00
00
38
38
38
38
38
38
38
00
00
00
38
38
38
38
38
38
38
00
00
00
00
00
00
ENDCHAR
STARTCHAR section
ENCODING 167
SWIDTH 482 0
DWIDTH 14 0
BBX 14 29 0 -6
BITMAP
0000
0000
0000
0000
0000
0FC0
1FE0
3CF0
3870
3C70
1E00
3F00
7F80
73C0
71E0
78F0
3C78
1E38
0F38
07F8
03F0
01E0
38F0
3870
3CF0
1FE0
0FC0
0000
0000
ENDCHAR
STARTCHAR dieresis
ENCODING 168
SWIDTH 310 0
DWIDTH 9 0
BBX 9 29 0 -6
BITMAP
0000
0000
0000
0000
0000
0000
7700
7700
0000
0000
0000
0000
0000
0000
0000
0000
0000
0000
0000
0000
0000
0000
0000
0000
0000
0000
0000
0000
0000
ENDCHAR
STARTCHAR copyright
ENCODING 169
SWIDTH 724 0
DWIDTH 21 0
BBX 21 29 0 -6
BITMAP
000000
000000
000000
000000
000000
000000
01FC00
078F00
0E0380
1CF9C0
19DCC0
3B8EE0
338E60
338060
338060
338060
338E60
3B8EE0
19DCC0
1CF9C0
0E0380
078F00
01FC00
000000
000000
000000
000000
000000
000000
ENDCHAR
STARTCHAR ordfeminine
ENCODING 170
SWIDTH 310 0
DWIDTH 9 0
BBX 9 29 0 -6
BITMAP
0000
0000
0000
0000
0000
0000
3E00
7700
7700
1F00
3F00
7700
7700
3F80
0000
7F80
7F80
0000
0000
0000
0000
0000
0000
0000
0000
0000
0000
0000
0000
ENDCHAR
STARTCHAR guillemotleft
ENCODING 171
SWIDTH 482 0
DWIDTH 14 0
BBX 14 29 0 -6
BITMAP
0000
0000
0000
0000
0000
0000
0000
0000
0000
0000
0000
0000
0000
0630
0E70
1CE0
39C0
39C0
1CE0
0E70
0630
0000
0000
0000
0000
0000
0000
0000
0000
ENDCHAR
STARTCHAR logicalnot
ENCODING 172
SWIDTH 517 0
DWIDTH 15 0
BBX 15 29 0 -6
BITMAP
0000
0000
0000
0000
0000
0000
0000
0000
0000
0000
0000
0000
0000
7FF8
7FF8
0038
0038
0038
0038
0000
0000
0000
0000
0000
0000
0000
0000
0000
0000
ENDCHAR
STARTCHAR hyphen
ENCODING 173
SWIDTH 310 0
DWIDTH 9 0
BBX 9 29 0 -6
BITMAP
0000
0000
0000
0000
0000
0000
0000
0000
0000
0000
0000
0000
0000
0000
0000
0000
7F00
7F00
0000
0000
0000
0000
0000
0000
0000
0000
0000
0000
0000
ENDCHAR
STARTCHAR registered
ENCODING 174
SWIDTH 724 0
DWIDTH 21 0
BBX 21 29 0 -6
BITMAP
000000
000000
000000
000000
000000
000000
01FC00
078F00
0E0380
1FF9C0
1B9CC0
3B8EE0
338E60
339C60
33F860
339C60
338E60
3B8EE0
1B8EC0
1F8FC0
0E0380
078F00
01FC00
000000
000000
000000
000000
000000
000000
ENDCHAR
STARTCHAR macron
ENCODING 175
SWIDTH 482 0
DWIDTH 14 0
BBX 14 29 0 -6
BITMAP
0000
0000
0000
FFFC
FFFC
0000
0000
0000
0000
0000
0000
0000
0000
0000
0000
0000
0000
0000
0000
0000
0000
0000
0000
0000
0000
0000
0000
0000
0000
ENDCHAR
STARTCHAR degree
ENCODING 176
SWIDTH 310 0
DWIDTH 9 0
BBX 9 29 0 -6
BITMAP
0000
0000
0000
0000
0000
0000
1C00
3E00
7700
7700
3E00
1C00
0000
0000
0000
0000
0000
0000
0000
0000
0000
0000
0000
0000
0000
0000
0000
0000
0000
ENDCHAR
STARTCHAR plusminus
ENCODING 177
SWIDTH 517 0
DWIDTH 15 0
BBX 15 29 0 -6
BITMAP
0000
0000
0000
0000
0000
0000
0000
0380
0380
0380
0380
0380
7FFC
7FFC
0380
0380
0380
0380
0380
0000
0000
7FFC
7FFC
0000
0000
0000
0000
0000
0000
ENDCHAR
STARTCHAR twosuperior
ENCODING 178
SWIDTH 275 0
DWIDTH 8 0
BBX 8 29 0 -6
BITMAP
00
00
00
00
00
00
3E
77
07
0E
1C
38
70
7F
00
00
00
00
00
00
00
00
00
00
00
00
00
00
00
ENDCHAR
STARTCHAR threesuperior
ENCODING 168
SWIDTH 275 0
DWIDTH 8 0
BBX 8 29 0 -6
BITMAP
00
00
00
00
00
00
3E
77
07
1E
07
07
77
3E
00
00
00
00
00
00
00
00
00
00
00
00
00
00
00
ENDCHAR
STARTCHAR acute
ENCODING 180
SWIDTH 310 0
DWIDTH 9 0
BBX 9 29 0 -6
BITMAP
0000
0000
0000
0000
0000
0000
0F00
1E00
3800
6000
0000
0000
0000
0000
0000
0000
0000
0000
0000
0000
0000
0000
0000
0000
0000
0000
0000
0000
0000
ENDCHAR
STARTCHAR mu
ENCODING 181
SWIDTH 482 0
DWIDTH 14 0
BBX 14 29 0 -6
BITMAP
0000
0000
0000
0000
0000
0000
0000
0000
0000
0000
0000
3870
3870
3870
3870
3870
3870
3870
3870
3870
3CF0
3FF8
3FB8
3800
3800
3800
3800
0000
0000
ENDCHAR
STARTCHAR paragraph
ENCODING 182
SWIDTH 448 0
DWIDTH 13 0
BBX 13 29 0 -6
BITMAP
0000
0000
0000
0000
0000
0000
0000
0000
0FF0
3F60
3F60
7F60
7F60
3F60
3F60
0F60
0360
0360
0360
0360
0360
0360
0360
0360
0360
0360
0000
0000
0000
ENDCHAR
STARTCHAR periodcentered
ENCODING 183
SWIDTH 241 0
DWIDTH 7 0
BBX 7 29 0 -6
BITMAP
00
00
00
00
00
00
00
00
00
00
00
00
00
38
38
00
00
00
00
00
00
00
00
00
00
00
00
00
00
ENDCHAR
STARTCHAR cedilla
ENCODING 184
SWIDTH 310 0
DWIDTH 9 0
BBX 9 29 0 -6
BITMAP
0000
0000
0000
0000
0000
0000
0000
0000
0000
0000
0000
0000
0000
0000
0000
0000
0000
0000
0000
0000
0000
0000
0000
1800
1E00
0700
0700
3E00
0000
ENDCHAR
STARTCHAR onesuperior
ENCODING 185
SWIDTH 275 0
DWIDTH 8 0
BBX 8 29 0 -6
BITMAP
00
00
00
00
00
00
1C
7C
1C
1C
1C
1C
1C
1C
00
00
00
00
00
00
00
00
00
00
00
00
00
00
00
ENDCHAR
STARTCHAR ordmasculine
ENCODING 186
SWIDTH 310 0
DWIDTH 9 0
BBX 9 29 0 -6
BITMAP
0000
0000
0000
0000
0000
0000
1E00
3F00
7380
7380
7380
7380
3F00
1E00
0000
7F80
7F80
0000
0000
0000
0000
0000
0000
0000
0000
0000
0000
0000
0000
ENDCHAR
STARTCHAR guillemotright
ENCODING 187
SWIDTH 482 0
DWIDTH 14 0
BBX 14 29 0 -6
BITMAP
0000
0000
0000
0000
0000
0000
0000
0000
0000
0000
0000
0000
0000
3180
39C0
1CE0
0E70
0E70
1CE0
39C0
3180
0000
0000
0000
0000
0000
0000
0000
0000
ENDCHAR
STARTCHAR onequarter
ENCODING 188
SWIDTH 655 0
DWIDTH 19 0
BBX 19 29 0 -6
BITMAP
000000
000000
000000
000000
000000
000000
1C0700
7C0700
1C0E00
1C1C00
1C1C00
1C3800
1C7000
1C7000
00E000
01C1C0
01C3C0
0387C0
070FC0
071DC0
0E1FC0
1C01C0
1C01C0
000000
000000
000000
000000
000000
000000
ENDCHAR
STARTCHAR onehalf
ENCODING 189
SWIDTH 655 0
DWIDTH 19 0
BBX 19 29 0 -6
BITMAP
000000
000000
000000
000000
000000
000000
1C0700
7C0700
1C0E00
1C1C00
1C1C00
1C3800
1C7000
1C7000
00E000
01CF80
01DDC0
0381C0
070380
070700
0E0E00
1C1C00
1C1FC0
000000
000000
000000
000000
000000
000000
ENDCHAR
STARTCHAR threequarters
ENCODING 190
SWIDTH 655 0
DWIDTH 19 0
BBX 19 29 0 -6
BITMAP
000000
000000
000000
000000
000000
000000
3E0700
770700
070E00
1E1C00
071C00
073800
777000
3E7000
00E000
01C1C0
01C3C0
0387C0
070FC0
071DC0
0E1FC0
1C01C0
1C01C0
000000
000000
000000
000000
000000
000000
ENDCHAR
STARTCHAR questiondown
ENCODING 191
SWIDTH 448 0
DWIDTH 13 0
BBX 13 29 0 -6
BITMAP
0000
0000
0000
0000
0000
0000
0700
0700
0000
0000
0000
0700
0700
0700
0F00
1E00
3C00
7800
7000
7070
38F0
3FE0
0F80
0000
0000
0000
0000
0000
0000
ENDCHAR
STARTCHAR cyr-A
ENCODING 192
SWIDTH 551 0
DWIDTH 16 0
BBX 16 29 0 -6
BITMAP
0000
0000
0000
0000
0000
0000
03C0
03C0
07E0
07E0
07E0
0FF0
0E70
0E70
1E78
1C38
3C3C
3FFC
3FFC
781E
700E
F00F
F00F
0000
0000
0000
0000
0000
0000
ENDCHAR
STARTCHAR cyr-Be
ENCODING 193
SWIDTH 586 0
DWIDTH 17 0
BBX 17 29 0 -6
BITMAP
000000
000000
000000
000000
000000
000000
3FFE00
3FFE00
380000
380000
380000
380000
380000
3FFC00
3FFE00
380E00
380700
380700
380700
380700
380E00
3FFE00
3FF800
000000
000000
000000
000000
000000
000000
ENDCHAR
STARTCHAR cyr-Ve
ENCODING 194
SWIDTH 586 0
DWIDTH 17 0
BBX 17 29 0 -6
BITMAP
000000
000000
000000
000000
000000
000000
3FF000
3FFC00
381C00
380E00
380E00
380E00
381E00
3FFC00
3FFE00
380E00
380700
380700
380700
380700
380E00
3FFE00
3FF800
000000
000000
000000
000000
000000
000000
ENDCHAR
STARTCHAR cyr-Ghe
ENCODING 195
SWIDTH 586 0
DWIDTH 17 0
BBX 17 29 0 -6
BITMAP
000000
000000
000000
000000
000000
000000
3FFF00
3FFF00
380000
380000
380000
380000
380000
380000
380000
380000
380000
380000
380000
380000
380000
380000
380000
000000
000000
000000
000000
000000
000000
ENDCHAR
STARTCHAR cyr-De
ENCODING 196
SWIDTH 655 0
DWIDTH 19 0
BBX 19 29 0 -6
BITMAP
000000
000000
000000
000000
000000
000000
07FF00
07FF00
070700
070700
070700
070700
070700
070700
070700
070700
070700
070700
070700
070700
0E0700
7FFFC0
7FFFC0
7001C0
7001C0
000000
000000
000000
000000
ENDCHAR
STARTCHAR cyr-Ie
ENCODING 197
SWIDTH 586 0
DWIDTH 17 0
BBX 17 29 0 -6
BITMAP
000000
000000
000000
000000
000000
000000
3FFF00
3FFF00
380000
380000
380000
380000
380000
3FFC00
3FFC00
380000
380000
380000
380000
380000
380000
3FFF00
3FFF00
000000
000000
000000
000000
000000
000000
ENDCHAR
STARTCHAR cyr-Zhe
ENCODING 198
SWIDTH 862 0
DWIDTH 25 0
BBX 25 29 0 -6
BITMAP
00000000
00000000
00000000
00000000
00000000
00000000
701C0700
781C0F00
3C1C1E00
1E1C3C00
0F1C7800
079CF000
03DDE000
01FFC000
01FFC000
01FFC000
03DDE000
079CF000
0F1C7800
1E1C3C00
3C1C1E00
781C0F00
F01C0780
00000000
00000000
00000000
00000000
00000000
00000000
ENDCHAR
STARTCHAR cyr-Ze
ENCODING 199
SWIDTH 586 0
DWIDTH 17 0
BBX 17 29 0 -6
BITMAP
000000
000000
000000
000000
000000
000000
07F000
1FFC00
3C1E00
380E00
000E00
000E00
001E00
01FC00
01FC00
001E00
000F00
000700
000700
700700
780F00
3FFE00
0FFC00
000000
000000
000000
000000
000000
000000
ENDCHAR
STARTCHAR cyr-I
ENCODING 200
SWIDTH 655 0
DWIDTH 19 0
BBX 19 29 0 -6
BITMAP
000000
000000
000000
000000
000000
000000
380380
380380
380380
380780
380F80
381F80
383F80
387B80
38F380
39E380
3BC380
3F8380
3F0380
3E0380
3C0380
380380
380380
000000
000000
000000
000000
000000
000000
ENDCHAR
STARTCHAR cyr-I-short
ENCODING 201
SWIDTH 655 0
DWIDTH 19 0
BBX 19 29 0 -6
BITMAP
000000
000000
000000
07BC00
03F800
01F000
380380
380380
380380
380780
380F80
381F80
383F80
387B80
38F380
39E380
3BC380
3F8380
3F0380
3E0380
3C0380
380380
380380
000000
000000
000000
000000
000000
000000
ENDCHAR
STARTCHAR cyr-Ka
ENCODING 202
SWIDTH 586 0
DWIDTH 17 0
BBX 17 29 0 -6
BITMAP
000000
000000
000000
000000
000000
000000
380F00
381E00
383C00
387800
38F000
39E000
3BC000
3FE000
3FE000
3EF000
3C7800
383800
383C00
381E00
380E00
380F00
380780
000000
000000
000000
000000
000000
000000
ENDCHAR
STARTCHAR cyr-El
ENCODING 203
SWIDTH 551 0
DWIDTH 16 0
BBX 16 29 0 -6
BITMAP
0000
0000
0000
0000
0000
0000
1FFC
1FFC
1C1C
1C1C
1C1C
1C1C
1C1C
1C1C
1C1C
1C1C
1C1C
1C1C
1C1C
1C1C
1C1C
7C1C
781C
0000
0000
0000
0000
0000
0000
ENDCHAR
STARTCHAR cyr-Em
ENCODING 204
SWIDTH 724 0
DWIDTH 21 0
BBX 21 29 0 -6
BITMAP
000000
000000
000000
000000
000000
000000
3800E0
3800E0
3C01E0
3C01E0
3E03E0
3E03E0
3F07E0
3F07E0
3F8FE0
3B8EE0
3BDEE0
39DCE0
39FCE0
38F8E0
38F8E0
3870E0
3870E0
000000
000000
000000
000000
000000
000000
ENDCHAR
STARTCHAR cyr-En
ENCODING 205
SWIDTH 620 0
DWIDTH 18 0
BBX 18 29 0 -6
BITMAP
000000
000000
000000
000000
000000
000000
380700
380700
380700
380700
380700
380700
380700
3FFF00
3FFF00
380700
380700
380700
380700
380700
380700
380700
380700
000000
000000
000000
000000
000000
000000
ENDCHAR
STARTCHAR cyr-O
ENCODING 206
SWIDTH 689 0
DWIDTH 20 0
BBX 20 29 0 -6
BITMAP
000000
000000
000000
000000
000000
000000
03FC00
0FFF00
1F0F80
3C03C0
3801C0
7801E0
7000E0
7000E0
7000E0
7000E0
7000E0
7801E0
3801C0
3C03C0
1F0F80
0FFF00
03FC00
000000
000000
000000
000000
000000
000000
ENDCHAR
STARTCHAR cyr-Pe
ENCODING 207
SWIDTH 620 0
DWIDTH 18 0
BBX 18 29 0 -6
BITMAP
000000
000000
000000
000000
000000
000000
3FFF00
3FFF00
380700
380700
380700
380700
380700
380700
380700
380700
380700
380700
380700
380700
380700
380700
380700
000000
000000
000000
000000
000000
000000
ENDCHAR
STARTCHAR cyr-Er
ENCODING 208
SWIDTH 586 0
DWIDTH 17 0
BBX 17 29 0 -6
BITMAP
000000
000000
000000
000000
000000
000000
3FFC00
3FFF00
380700
380380
380380
380380
380380
380700
3FFF00
3FFC00
380000
380000
380000
380000
380000
380000
380000
000000
000000
000000
000000
000000
000000
ENDCHAR
STARTCHAR cyr-Es
ENCODING 209
SWIDTH 620 0
DWIDTH 18 0
BBX 18 29 0 -6
BITMAP
000000
000000
000000
000000
000000
000000
03FC00
0FFF00
1F0F80
3C0380
3801C0
7801C0
700000
700000
700000
700000
700000
7801C0
3801C0
3C0380
1F0F80
0FFF00
03FC00
000000
000000
000000
000000
000000
000000
ENDCHAR
STARTCHAR cyr-Te
ENCODING 210
SWIDTH 586 0
DWIDTH 17 0
BBX 17 29 0 -6
BITMAP
000000
000000
000000
000000
000000
000000
FFFF80
FFFF80
01C000
01C000
01C000
01C000
01C000
01C000
01C000
01C000
01C000
01C000
01C000
01C000
01C000
01C000
01C000
000000
000000
000000
000000
000000
000000
ENDCHAR
STARTCHAR cyr-U
ENCODING 211
SWIDTH 517 0
DWIDTH 15 0
BBX 15 29 0 -6
BITMAP
0000
0000
0000
0000
0000
0000
701C
701C
783C
3838
3838
3C78
1C70
1EF0
0EE0
0EE0
07C0
07C0
07C0
0780
0780
3F00
3E00
0000
0000
0000
0000
0000
0000
ENDCHAR
STARTCHAR cyr-Ef
ENCODING 212
SWIDTH 724 0
DWIDTH 21 0
BBX 21 29 0 -6
BITMAP
000000
000000
000000
000000
000000
000000
03FE00
0FFF80
1F77C0
3C71E0
3870E0
7870F0
707070
707070
707070
7870F0
3870E0
3C71E0
1F77C0
0FFF80
03FE00
007000
007000
000000
000000
000000
000000
000000
000000
ENDCHAR
STARTCHAR cyr-Kha
ENCODING 213
SWIDTH 620 0
DWIDTH 18 0
BBX 18 29 0 -6
BITMAP
000000
000000
000000
000000
000000
000000
E001C0
F003C0
780780
3C0F00
1E1E00
0F3C00
07F800
03F000
01E000
03F000
07F800
0F3C00
1E1E00
3C0F00
780780
F003C0
E001C0
000000
000000
000000
000000
000000
000000
ENDCHAR
STARTCHAR cyr-Tse
ENCODING 214
SWIDTH 620 0
DWIDTH 18 0
BBX 18 29 0 -6
BITMAP
000000
000000
000000
000000
000000
000000
380700
380700
380700
380700
380700
380700
380700
380700
380700
380700
380700
380700
380700
380700
380700
3FFF80
3FFF80
000380
000380
000000
000000
000000
000000
ENDCHAR
STARTCHAR cyr-Che
ENCODING 215
SWIDTH 620 0
DWIDTH 18 0
BBX 18 29 0 -6
BITMAP
000000
000000
000000
000000
000000
000000
380700
380700
380700
380700
380700
380700
380700
3FFF00
1FFF00
000700
000700
000700
000700
000700
000700
000700
000700
000000
000000
000000
000000
000000
000000
ENDCHAR
STARTCHAR cyr-Sha
ENCODING 216
SWIDTH 793 0
DWIDTH 23 0
BBX 23 29 0 -6
BITMAP
000000
000000
000000
000000
000000
000000
70381C
70381C
70381C
70381C
70381C
70381C
70381C
70381C
70381C
70381C
70381C
70381C
70381C
70381C
70381C
7FFFFC
7FFFFC
000000
000000
000000
000000
000000
000000
ENDCHAR
STARTCHAR cyr-Shcha
ENCODING 217
SWIDTH 827 0
DWIDTH 24 0
BBX 24 29 0 -6
BITMAP
000000
000000
000000
000000
000000
000000
70381C
70381C
70381C
70381C
70381C
70381C
70381C
70381C
70381C
70381C
70381C
70381C
70381C
70381C
70381C
7FFFFE
7FFFFE
00000E
00000E
000000
000000
000000
000000
ENDCHAR
STARTCHAR cyr-Ier
ENCODING 218
SWIDTH 724 0
DWIDTH 21 0
BBX 21 29 0 -6
BITMAP
000000
000000
000000
000000
000000
000000
7E0000
7E0000
0E0000
0E0000
0E0000
0E0000
0E0000
0FFFC0
0FFFE0
0E00F0
0E0070
0E0070
0E0070
0E0070
0E00F0
0FFFE0
0FFFC0
000000
000000
000000
000000
000000
000000
ENDCHAR
STARTCHAR cyr-Iery
ENCODING 219
SWIDTH 793 0
DWIDTH 23 0
BBX 23 29 0 -6
BITMAP
000000
000000
000000
000000
000000
000000
380038
380038
380038
380038
380038
380038
380038
3FFF38
3FFFB8
3803F8
3801F8
3801F8
3801F8
3801F8
3803F8
3FFFB8
3FFF38
000000
000000
000000
000000
000000
000000
ENDCHAR
STARTCHAR cyr-Ierik
ENCODING 220
SWIDTH 655 0
DWIDTH 19 0
BBX 19 29 0 -6
BITMAP
000000
000000
000000
000000
000000
000000
380000
380000
380000
380000
380000
380000
380000
3FFF00
3FFF80
3803C0
3801C0
3801C0
3801C0
3801C0
3803C0
3FFF80
3FFF00
000000
000000
000000
000000
000000
000000
ENDCHAR
STARTCHAR cyr-E-rev
ENCODING 221
SWIDTH 620 0
DWIDTH 18 0
BBX 18 29 0 -6
BITMAP
000000
000000
000000
000000
000000
000000
0FF000
3FFC00
7C3E00
700F00
000700
000780
000380
01FF80
01FF80
000380
000380
000780
000700
700F00
7C3E00
3FFC00
0FF000
000000
000000
000000
000000
000000
000000
ENDCHAR
STARTCHAR cyr-Yu
ENCODING 222
SWIDTH 793 0
DWIDTH 23 0
BBX 23 29 0 -6
BITMAP
000000
000000
000000
000000
000000
000000
383F80
38FFE0
39F1F0
3BC078
3B8038
3F803C
3F001C
3F001C
3F001C
3F001C
3F001C
3F803C
3B8038
3BC078
39F1F0
38FFE0
383F80
000000
000000
000000
000000
000000
000000
ENDCHAR
STARTCHAR cyr-Ya
ENCODING 223
SWIDTH 620 0
DWIDTH 18 0
BBX 18 29 0 -6
BITMAP
000000
000000
000000
000000
000000
000000
1FFF00
3FFF00
780700
700700
700700
700700
700700
700700
780700
3FFF00
0FFF00
03C700
078700
0F0700
1E0700
3C0700
780700
000000
000000
000000
000000
000000
000000
ENDCHAR
STARTCHAR cyr-a
ENCODING 224
SWIDTH 482 0
DWIDTH 14 0
BBX 14 29 0 -6
BITMAP
0000
0000
0000
0000
0000
0000
0000
0000
0000
0000
0000
0F80
3FE0
38E0
0070
00F0
0FF0
3FF0
7870
7070
78F0
3FFC
1FBC
0000
0000
0000
0000
0000
0000
ENDCHAR
STARTCHAR cyr-be
ENCODING 225
SWIDTH 517 0
DWIDTH 15 0
BBX 15 29 0 -6
BITMAP
0000
0000
0000
0000
0000
0000
0000
0078
0FF0
3FE0
7800
7FE0
7FF8
7838
783C
701C
701C
701C
701C
703C
3838
3FF8
0FE0
0000
0000
0000
0000
0000
0000
ENDCHAR
STARTCHAR cyr-ve
ENCODING 226
SWIDTH 482 0
DWIDTH 14 0
BBX 14 29 0 -6
BITMAP
0000
0000
0000
0000
0000
0000
0000
0000
0000
0000
0000
3FF0
3FF8
3838
3838
3838
3FF0
3FF8
3838
3838
3838
3FF8
3FF0
0000
0000
0000
0000
0000
0000
ENDCHAR
STARTCHAR cyr-ghe
ENCODING 227
SWIDTH 448 0
DWIDTH 13 0
BBX 13 29 0 -6
BITMAP
0000
0000
0000
0000
0000
0000
0000
0000
0000
0000
0000
3FF0
3FF0
3800
3800
3800
3800
3800
3800
3800
3800
3800
3800
0000
0000
0000
0000
0000
0000
ENDCHAR
STARTCHAR cyr-de
ENCODING 228
SWIDTH 551 0
DWIDTH 16 0
BBX 16 29 0 -6
BITMAP
0000
0000
0000
0000
0000
0000
0000
0000
0000
0000
0000
0FF8
0FF8
0E38
0E38
0E38
0E38
0E38
0E38
0E38
1C38
7FFE
7FFE
700E
700E
0000
0000
0000
0000
ENDCHAR
STARTCHAR cyr-ie
ENCODING 229
SWIDTH 517 0
DWIDTH 15 0
BBX 15 29 0 -6
BITMAP
0000
0000
0000
0000
0000
0000
0000
0000
0000
0000
0000
07C0
1FF0
3C78
3838
701C
7FFC
7FFC
7000
3800
3C3C
1FF8
07E0
0000
0000
0000
0000
0000
0000
ENDCHAR
STARTCHAR cyr-zhe
ENCODING 230
SWIDTH 724 0
DWIDTH 21 0
BBX 21 29 0 -6
BITMAP
000000
000000
000000
000000
000000
000000
000000
000000
000000
000000
000000
707070
7870F0
3C71E0
1E73C0
0F7780
07FF00
03FE00
07FF00
0F7780
1E73C0
3C71E0
7870F0
000000
000000
000000
000000
000000
000000
ENDCHAR
STARTCHAR cyr-z
ENCODING 231
SWIDTH 448 0
DWIDTH 13 0
BBX 13 29 0 -6
BITMAP
0000
0000
0000
0000
0000
0000
0000
0000
0000
0000
0000
3FE0
7FF0
7070
0070
0070
07E0
07F0
0070
0070
7070
7FF0
3FE0
0000
0000
0000
0000
0000
0000
ENDCHAR
STARTCHAR cyr-i
ENCODING 232
SWIDTH 448 0
DWIDTH 13 0
BBX 13 29 0 -6
BITMAP
0000
0000
0000
0000
0000
0000
0000
0000
0000
0000
0000
7070
7070
70F0
71F0
73F0
77F0
7F70
7E70
7C70
7870
7070
7070
0000
0000
0000
0000
0000
0000
ENDCHAR
STARTCHAR cyr-i-short
ENCODING 233
SWIDTH 448 0
DWIDTH 13 0
BBX 13 29 0 -6
BITMAP
0000
0000
0000
0000
0000
0000
0000
0000
1DC0
1FC0
0F80
7070
7070
70F0
71F0
73F0
77F0
7F70
7E70
7C70
7870
7070
7070
0000
0000
0000
0000
0000
0000
ENDCHAR
STARTCHAR cyr-ka
ENCODING 234
SWIDTH 448 0
DWIDTH 13 0
BBX 13 29 0 -6
BITMAP
0000
0000
0000
0000
0000
0000
0000
0000
0000
0000
0000
38F0
39E0
3BC0
3F80
3F00
3F80
3FC0
39C0
39E0
38F0
3870
3878
0000
0000
0000
0000
0000
0000
ENDCHAR
STARTCHAR cyr-el
ENCODING 235
SWIDTH 482 0
DWIDTH 14 0
BBX 14 29 0 -6
BITMAP
0000
0000
0000
0000
0000
0000
0000
0000
0000
0000
0000
1FF0
1FF0
1C70
1C70
1C70
1C70
1C70
1C70
1C70
1C70
3C70
7870
0000
0000
0000
0000
0000
0000
ENDCHAR
STARTCHAR cyr-em
ENCODING 236
SWIDTH 586 0
DWIDTH 17 0
BBX 17 29 0 -6
BITMAP
000000
000000
000000
000000
000000
000000
000000
000000
000000
000000
000000
700700
780F00
7C1F00
7E3F00
7F7F00
77F700
73E700
71C700
700700
700700
700700
700700
000000
000000
000000
000000
000000
000000
ENDCHAR
STARTCHAR cyr-en
ENCODING 237
SWIDTH 482 0
DWIDTH 14 0
BBX 14 29 0 -6
BITMAP
0000
0000
0000
0000
0000
0000
0000
0000
0000
0000
0000
3870
3870
3870
3870
3870
3FF0
3FF0
3870
3870
3870
3870
3870
0000
0000
0000
0000
0000
0000
ENDCHAR
STARTCHAR cyr-o
ENCODING 238
SWIDTH 517 0
DWIDTH 15 0
BBX 15 29 0 -6
BITMAP
0000
0000
0000
0000
0000
0000
0000
0000
0000
0000
0000
0FE0
3FF8
3C78
783C
701C
701C
701C
701C
783C
3C78
3FF8
0FE0
0000
0000
0000
0000
0000
0000
ENDCHAR
STARTCHAR cyr-pe
ENCODING 239
SWIDTH 482 0
DWIDTH 14 0
BBX 14 29 0 -6
BITMAP
0000
0000
0000
0000
0000
0000
0000
0000
0000
0000
0000
3FF0
3FF0
3870
3870
3870
3870
3870
3870
3870
3870
3870
3870
0000
0000
0000
0000
0000
0000
ENDCHAR
STARTCHAR cyr-er
ENCODING 240
SWIDTH 517 0
DWIDTH 15 0
BBX 15 29 0 -6
BITMAP
0000
0000
0000
0000
0000
0000
0000
0000
0000
0000
0000
3FE0
3FF8
3C78
383C
381C
381C
381C
381C
383C
3C78
3FF8
3FE0
3800
3800
3800
3800
3800
0000
ENDCHAR
STARTCHAR cyr-es
ENCODING 241
SWIDTH 448 0
DWIDTH 13 0
BBX 13 29 0 -6
BITMAP
0000
0000
0000
0000
0000
0000
0000
0000
0000
0000
0000
07C0
1FF0
3C78
3838
7000
7000
7000
7000
3838
3C78
1FF0
07C0
0000
0000
0000
0000
0000
0000
ENDCHAR
STARTCHAR cyr-te
ENCODING 242
SWIDTH 448 0
DWIDTH 13 0
BBX 13 29 0 -6
BITMAP
0000
0000
0000
0000
0000
0000
0000
0000
0000
0000
0000
FFF8
FFF8
0700
0700
0700
0700
0700
0700
0700
0700
0700
0700
0000
0000
0000
0000
0000
0000
ENDCHAR
STARTCHAR cyr-u
ENCODING 243
SWIDTH 413 0
DWIDTH 12 0
BBX 12 29 0 -6
BITMAP
0000
0000
0000
0000
0000
0000
0000
0000
0000
0000
0000
E070
E070
F0F0
70E0
79E0
39C0
39C0
3FC0
1F80
1F80
0F00
0F00
0E00
1E00
1C00
FC00
F800
0000
ENDCHAR
STARTCHAR cyr-ef
ENCODING 244
SWIDTH 586 0
DWIDTH 17 0
BBX 17 29 0 -6
BITMAP
000000
000000
000000
000000
000000
000000
000000
000000
000000
000000
01C000
0FF800
3FFE00
3DDE00
79CF00
71C700
71C700
71C700
71C700
79CF00
3DDE00
3FFE00
0FF800
01C000
01C000
01C000
01C000
01C000
000000
ENDCHAR
STARTCHAR cyr-kha
ENCODING 245
SWIDTH 413 0
DWIDTH 12 0
BBX 12 29 0 -6
BITMAP
0000
0000
0000
0000
0000
0000
0000
0000
0000
0000
0000
E070
F0F0
79E0
3FC0
1F80
0F00
0F00
1F80
3FC0
79E0
F0F0
E070
0000
0000
0000
0000
0000
0000
ENDCHAR
STARTCHAR cyr-tse
ENCODING 246
SWIDTH 482 0
DWIDTH 14 0
BBX 14 29 0 -6
BITMAP
0000
0000
0000
0000
0000
0000
0000
0000
0000
0000
0000
3870
3870
3870
3870
3870
3870
3870
3870
3870
3870
3FF8
3FF8
0038
0038
0000
0000
0000
0000
ENDCHAR
STARTCHAR cyr-che
ENCODING 247
SWIDTH 482 0
DWIDTH 14 0
BBX 14 29 0 -6
BITMAP
0000
0000
0000
0000
0000
0000
0000
0000
0000
0000
0000
3870
3870
3870
3870
3870
3FF0
1FF0
0070
0070
0070
0070
0070
0000
0000
0000
0000
0000
0000
ENDCHAR
STARTCHAR cyr-sha
ENCODING 248
SWIDTH 655 0
DWIDTH 19 0
BBX 19 29 0 -6
BITMAP
000000
000000
000000
000000
000000
000000
000000
000000
000000
000000
000000
70E1C0
70E1C0
70E1C0
70E1C0
70E1C0
70E1C0
70E1C0
70E1C0
70E1C0
70E1C0
7FFFC0
7FFFC0
000000
000000
000000
000000
000000
000000
ENDCHAR
STARTCHAR cyr-shcha
ENCODING 249
SWIDTH 689 0
DWIDTH 20 0
BBX 20 29 0 -6
BITMAP
000000
000000
000000
000000
000000
000000
000000
000000
000000
000000
000000
70E1C0
70E1C0
70E1C0
70E1C0
70E1C0
70E1C0
70E1C0
70E1C0
70E1C0
70E1C0
7FFFE0
7FFFE0
0000E0
0000E0
000000
000000
000000
000000
ENDCHAR
STARTCHAR cyr-ier
ENCODING 250
SWIDTH 551 0
DWIDTH 16 0
BBX 16 29 0 -6
BITMAP
0000
0000
0000
0000
0000
0000
0000
0000
0000
0000
0000
7C00
7C00
1C00
1C00
1FF8
1FFC
1C1E
1C0E
1C0E
1C1E
1FFC
1FF8
0000
0000
0000
0000
0000
0000
ENDCHAR
STARTCHAR cyr-iery
ENCODING 251
SWIDTH 586 0
DWIDTH 17 0
BBX 17 29 0 -6
BITMAP
000000
000000
000000
000000
000000
000000
000000
000000
000000
000000
000000
700700
700700
700700
700700
7FE700
7FF700
707F00
703F00
703F00
707F00
7FF700
7FE700
000000
000000
000000
000000
000000
000000
ENDCHAR
STARTCHAR cyr-ierik
ENCODING 252
SWIDTH 482 0
DWIDTH 14 0
BBX 14 29 0 -6
BITMAP
0000
0000
0000
0000
0000
0000
0000
0000
0000
0000
0000
7000
7000
7000
7000
7FE0
7FF0
7078
7038
7038
7078
7FF0
7FE0
0000
0000
0000
0000
0000
0000
ENDCHAR
STARTCHAR cyr-e-rev
ENCODING 253
SWIDTH 482 0
DWIDTH 14 0
BBX 14 29 0 -6
BITMAP
0000
0000
0000
0000
0000
0000
0000
0000
0000
0000
0000
1FC0
3FF0
78F0
0078
0038
07F8
07F8
0038
0078
78F0
3FF0
1FC0
0000
0000
0000
0000
0000
0000
ENDCHAR
STARTCHAR cyr-yu
ENCODING 254
SWIDTH 620 0
DWIDTH 18 0
BBX 18 29 0 -6
BITMAP
000000
000000
000000
000000
000000
000000
000000
000000
000000
000000
000000
71FC00
77FF00
778F00
7F0780
7E0380
7E0380
7E0380
7E0380
7F0780
778F00
77FF00
71FC00
000000
000000
000000
000000
000000
000000
ENDCHAR
STARTCHAR cyr-ya
ENCODING 255
SWIDTH 482 0
DWIDTH 14 0
BBX 14 29 0 -6
BITMAP
0000
0000
0000
0000
0000
0000
0000
0000
0000
0000
0000
1FF8
3FF8
7838
7038
7038
7838
3FF8
1FF8
0F38
1E38
3C38
7838
0000
0000
0000
0000
0000
0000
ENDCHAR
ENDFONT
